<svg width="112" height="35" viewBox="0 0 112 35" fill="none" xmlns="http://www.w3.org/2000/svg">
<path d="M16.1664 15.5523C15.5332 15.799 14.886 15.9645 14.2314 16.0756C14.1844 17.5183 14.2015 18.9749 14.4728 20.3888C14.7953 22.0718 15.3335 23.7537 15.8407 25.3876C16.3426 27.0033 14.3649 27.7754 13.2564 26.8912C10.1916 24.4478 9.85303 20.0172 9.93953 16.3671C9.9406 16.3286 9.94487 16.2891 9.94487 16.2507C9.4814 16.2347 9.01793 16.2165 8.55767 16.2016C8.11022 16.1877 7.6617 16.1781 7.21212 16.1727C6.80952 19.2226 6.54788 22.2992 6.25421 25.3662C6.14102 26.5409 4.44199 26.9136 4.10667 25.6567C3.31429 22.6751 2.96509 19.5654 3.0911 16.4824C2.40871 16.617 1.7338 16.8007 1.07277 17.0634C0.170399 17.4222 -0.451118 15.9068 0.414947 15.5042C1.33334 15.0771 2.27309 14.7877 3.22993 14.5933C3.55564 11.5263 4.36724 8.51807 5.7192 5.72659C6.02675 5.09119 7.05621 5.54612 6.84583 6.2018C5.99471 8.86193 5.433 11.5819 5.21088 14.3189C5.2632 14.3146 5.31446 14.3125 5.36679 14.3093C5.44047 13.8746 5.50348 13.4379 5.58464 13.0032C6.26062 9.38733 7.10106 5.7597 8.57048 2.3734C9.12366 1.10047 10.1542 -0.124401 11.7304 0.0101535C13.5116 0.161794 14.2709 1.31192 14.5251 3.26617C14.7792 5.22468 14.6329 7.29319 14.5945 9.26132C14.5625 10.8856 14.4215 12.5088 14.3222 14.132C14.8668 14.0957 15.4104 14.0551 15.9539 13.9932C16.9204 13.8832 16.9225 15.2586 16.1664 15.5523ZM10.0399 14.2452C10.2086 11.4612 10.5525 8.67932 10.9455 5.92629C11.0331 5.31011 11.1334 4.69607 11.2466 4.08417C11.2936 3.82787 11.7624 1.90353 11.142 2.11497C10.5813 2.30933 10.3048 3.40499 10.1136 3.90476C9.83808 4.62025 9.60955 5.35283 9.37141 6.08113C8.49893 8.75194 7.92547 11.4793 7.49725 14.2313C7.67665 14.2313 7.85499 14.2292 8.03547 14.2302C8.70397 14.2366 9.37248 14.243 10.0399 14.2452Z" fill="#611192" style="fill:#611192;fill:color(display-p3 0.3800 0.0671 0.5717);fill-opacity:1;"/>
<path d="M29.7286 19.6295C29.0281 21.3371 28.1204 23.4398 25.9066 23.2305C24.8804 23.1322 23.9791 22.1839 23.6181 21.2549C23.2465 20.3034 23.2753 19.276 23.3725 18.2765C23.4516 17.467 23.6 16.6672 23.5509 15.8502C23.5306 15.5181 23.4387 15.0215 23.0212 15.2469C22.7478 15.3942 22.5417 15.721 22.3687 15.9688C21.9437 16.5764 21.6489 17.2684 21.3809 17.9561C21.0349 18.8446 20.8085 19.7726 20.674 20.7166C20.5842 21.352 20.6195 22.0878 19.9179 22.3761C19.0134 22.7467 17.6849 21.9244 17.3603 21.0936C17.1499 20.5543 17.1285 19.9627 17.1296 19.3839C17.1328 18.2156 17.2172 17.0463 17.4126 15.894C17.5706 14.965 17.6913 13.8084 18.8671 13.7508C19.4897 13.7209 19.9702 14.2153 20.1186 14.7887C20.3087 15.5224 20.3728 16.3062 20.392 17.0783C20.5608 16.6747 20.753 16.2785 20.9698 15.8919C21.4952 14.9607 22.2363 13.9953 23.1803 13.4571C23.883 13.0566 24.7544 12.9648 25.488 13.3183C27.218 14.1533 26.8058 18.0843 26.6189 20.1357C26.5495 20.895 26.8261 21.2153 27.0546 21.2314C27.7263 21.2741 28.13 20.4966 28.8017 19.2792C28.9587 18.9941 29.2182 18.4089 29.3485 18.1729C29.4563 17.9775 29.6731 17.8675 29.8963 17.9828C30.3982 18.238 29.8739 19.276 29.7286 19.6295Z" fill="#611192" style="fill:#611192;fill:color(display-p3 0.3800 0.0671 0.5717);fill-opacity:1;"/>
<path d="M43.5389 18.5649C42.22 19.3583 41.2044 20.1795 39.9496 21.0595C39.8781 22.956 39.64 24.8377 39.2213 26.7407C38.5859 29.6347 36.8634 32.6984 33.9865 33.8699C32.8962 34.3131 31.2132 34.3601 30.3653 33.3851C29.4842 32.3727 29.6135 30.7698 30.1079 29.624C31.2901 26.8848 33.5326 24.4404 35.7891 22.5438C35.7966 22.5364 35.803 22.53 35.8179 22.5225C35.9514 21.429 36.023 20.329 36.0582 19.228C35.5723 20.4657 34.9017 21.6746 34.0335 22.5588C32.7926 23.82 30.6792 23.8605 29.7235 22.2459C28.8189 20.7177 28.883 18.5617 29.2322 16.8851C29.6359 14.9458 30.9697 13.0428 33.0318 12.6669C34.1403 12.4821 35.4805 12.7523 36.4865 13.4048C37.4134 12.6135 39.2438 12.7705 39.4958 14.21C39.7991 15.9763 39.9571 17.7351 39.9721 19.48C41.0314 18.7955 41.8313 18.1388 42.9269 17.5194C43.6029 17.1296 44.2084 18.1676 43.5389 18.5649ZM35.457 24.7501C34.5482 25.6439 33.6832 26.5815 32.9336 27.6121C32.2416 28.5636 30.3813 30.8275 31.4268 31.9958C32.7894 33.5207 34.1446 29.8867 34.3667 29.0815C34.6977 27.8865 35.0512 26.6969 35.3192 25.4859C35.3705 25.2403 35.4143 24.9957 35.457 24.7501ZM35.9867 15.5961C35.9461 15.563 35.913 15.5203 35.881 15.4786C35.4228 15.0387 34.8985 14.7674 34.277 15.0696C32.4316 15.9645 32.1113 18.9717 32.4669 20.7871C32.531 21.115 32.7317 21.3125 32.9538 20.9762C33.9203 19.5078 34.7351 17.9412 35.5787 16.397C35.7261 16.1269 35.8564 15.8652 35.9867 15.5961Z" fill="#611192" style="fill:#611192;fill:color(display-p3 0.3800 0.0671 0.5717);fill-opacity:1;"/>
<path d="M52.9822 18.4559C52.9833 19.1735 52.3137 20.1378 51.8246 20.8587C50.1341 23.3511 46.389 24.2268 44.0343 22.1978C42.6791 21.0295 42.4335 18.9461 42.6866 17.2812C43.1191 14.4769 45.8807 11.521 48.952 12.4437C50.0337 12.7683 50.7973 13.6258 50.7183 14.7866C50.6392 15.9837 49.8672 17.1221 48.9733 17.8792C48.339 18.4132 47.6032 18.8094 46.8108 19.0475C46.6955 19.0838 46.3132 19.1191 46.263 19.213C46.184 19.3786 46.4937 19.9702 46.5727 20.1218C47.38 21.6863 49.4272 21.571 50.5666 20.4539C51.1508 19.8848 51.6399 19.2536 52.0809 18.5723C52.4643 17.9796 52.9811 17.734 52.9822 18.4559ZM46.2342 17.9796C47.1066 17.7927 47.914 17.3453 48.5408 16.711C48.9018 16.3436 49.2189 15.9175 49.4208 15.4423C49.5575 15.1401 49.8031 14.4406 49.4571 14.1811C49.0673 13.8853 48.4041 14.289 48.0731 14.5196C46.8856 15.3451 46.5705 16.6426 46.2416 17.9583C46.2416 17.9732 46.2416 17.9732 46.2342 17.9796Z" fill="#611192" style="fill:#611192;fill:color(display-p3 0.3800 0.0671 0.5717);fill-opacity:1;"/>
<path d="M63.043 18.4783C62.556 19.5484 61.4475 21.3755 60.4458 22.515C59.4142 23.6971 57.98 24.7864 56.3366 24.7928C54.1805 24.8003 52.6619 22.7499 52.3095 20.7305C51.956 18.7186 51.7884 16.8327 51.8599 14.793C51.9966 10.9935 53.0998 6.59586 55.9628 3.89196C57.1887 2.73115 59.3512 2.16838 60.4469 3.81293C61.4998 5.39235 60.9232 7.31669 60.4757 8.99649C59.5605 12.5002 58.0751 15.7595 56.1999 18.8382C56.2362 19.3358 56.2938 19.8335 56.4017 20.3087C56.5523 20.9911 56.7359 22.2384 57.6586 22.2149C58.6165 22.1914 59.6705 21.1331 60.2472 20.5009C60.9178 19.7651 61.6066 18.6951 62.1769 17.9657C62.5934 17.4296 63.4092 17.6742 63.043 18.4783ZM56.1347 16.1706C57.1877 14.0658 58.1178 11.9022 58.8098 9.65325C59.0554 8.86728 59.2711 8.07383 59.4591 7.2665C59.6033 6.64606 59.9642 5.41371 59.3224 4.93743C57.9886 3.96457 57.1524 6.84789 56.9357 7.60502C56.1411 10.3815 56.0909 13.2937 56.1347 16.1706Z" fill="#611192" style="fill:#611192;fill:color(display-p3 0.3800 0.0671 0.5717);fill-opacity:1;"/>
<path d="M76.4979 18.8799C76.4125 18.9963 76.326 19.1116 76.2395 19.2259C74.8523 21.0424 73.1778 22.3409 71.0313 23.1322C69.2255 23.7986 66.8473 24.245 65.2028 22.9486C64.9689 25.4635 64.7745 27.533 64.8066 30.5093C64.8343 30.9396 64.861 31.3689 64.9027 31.8068C64.9742 32.5607 64.9603 33.6831 64.0451 33.9073C63.3062 34.0889 62.8235 33.4791 62.5661 32.8554C61.4245 30.0874 61.2846 27.0322 61.4224 24.0763C61.5655 21.0007 61.9051 17.9295 61.8132 14.8465C61.7577 12.983 64.4659 13.0705 64.6528 14.8465C64.7361 15.6399 64.7852 16.4323 64.8119 17.2247C65.2038 15.9517 65.8029 14.7664 66.8131 14.0007C68.8101 12.5014 71.781 12.9264 72.8553 15.3057C73.6797 17.1435 73.1757 19.5228 72.0416 21.2399C72.1996 21.1641 72.3545 21.0808 72.504 20.9847C73.6616 20.2393 74.6803 19.212 75.5859 18.1729C76.0163 17.6764 76.8877 18.3481 76.4979 18.8799ZM70.2101 16.1642C69.9837 14.9853 68.6809 14.8529 67.7134 15.516C66.6284 16.2571 66.1671 17.5536 65.8777 18.7475C65.6748 19.5751 65.5349 20.4177 65.4249 21.2613C65.4954 21.2464 65.5498 21.2303 65.6203 21.2378C67.4784 21.2848 68.9148 20.0119 69.7573 18.6225C70.1877 17.9124 70.3671 16.9908 70.2101 16.1642Z" fill="#611192" style="fill:#611192;fill:color(display-p3 0.3800 0.0671 0.5717);fill-opacity:1;"/>
<path d="M89.1065 18.6247C89.066 19.0722 88.8833 19.7278 88.674 20.2468C88.4508 20.8021 88.1978 21.35 87.8742 21.8476C87.4492 22.499 86.896 23.1141 86.1655 23.4228C85.3091 23.7848 84.3213 23.7346 83.5396 23.2369C82.5379 22.5994 82.0937 21.4781 81.9388 20.3408C81.5202 21.1695 81.014 21.9448 80.4106 22.5588C79.1698 23.82 77.0564 23.8606 76.1006 22.2459C75.1961 20.7178 75.2602 18.5617 75.6094 16.8851C76.013 14.9458 77.3468 13.0428 79.409 12.6669C80.5836 12.4715 82.02 12.7823 83.0409 13.5223C83.3645 13.0834 83.8461 12.8239 84.4558 12.9051C85.1842 13.0054 85.7971 13.6473 85.7822 14.4119C85.7459 15.6378 85.6231 16.8488 85.5729 18.0747C85.5536 18.5574 85.5056 19.0358 85.5024 19.5185C85.497 20.2575 85.575 22.215 86.6899 21.0777C87.0605 20.6996 87.337 20.1934 87.5912 19.7289C87.8283 19.2964 87.9692 18.8137 88.2405 18.3994C88.5427 17.937 89.1589 18.0502 89.1065 18.6247ZM82.3222 15.3954C82.3008 15.3719 82.2773 15.3495 82.2581 15.3238C81.8 14.8839 81.2756 14.6126 80.6541 14.9148C78.8088 15.8097 78.4884 18.8169 78.844 20.6323C78.9081 20.9602 79.1099 21.1578 79.331 20.8214C80.2975 19.353 81.1123 17.7864 81.9559 16.2422C82.0723 16.0308 82.1748 15.8215 82.2773 15.6122C82.2955 15.5406 82.304 15.4659 82.3222 15.3954Z" fill="#611192" style="fill:#611192;fill:color(display-p3 0.3800 0.0671 0.5717);fill-opacity:1;"/>
<path d="M102.456 18.5648C101.138 19.3583 100.122 20.1795 98.8673 21.0594C98.7946 22.956 98.5576 24.8376 98.1389 26.7406C97.5035 29.6346 95.781 32.6984 92.9041 33.8699C91.8138 34.3131 90.1308 34.3601 89.2829 33.3851C88.4018 32.3727 88.5311 30.7698 89.0255 29.6239C90.2077 26.8848 92.4502 24.4404 94.7067 22.5438C94.7142 22.5363 94.7206 22.5299 94.7355 22.5224C94.869 21.4289 94.9406 20.329 94.9758 19.228C94.4899 20.4657 93.8193 21.6745 92.9511 22.5588C91.7102 23.8199 89.5968 23.8605 88.6411 22.2459C87.7365 20.7177 87.8006 18.5616 88.1498 16.885C88.5535 14.9457 89.8873 13.0427 91.9494 12.6668C93.0579 12.4821 94.3981 12.7523 95.4041 13.4048C96.331 12.6135 98.1614 12.7704 98.4134 14.21C98.7167 15.9763 98.8747 17.7351 98.8897 19.48C99.949 18.7955 100.749 18.1387 101.845 17.5194C102.521 17.1296 103.126 18.1676 102.456 18.5648ZM94.3746 24.7501C93.4658 25.6439 92.6008 26.5815 91.8512 27.612C91.1592 28.5635 89.2989 30.8275 90.3444 31.9957C91.707 33.5207 93.0622 29.8866 93.2843 29.0815C93.6153 27.8865 93.9688 26.6968 94.2368 25.4859C94.2881 25.2402 94.3319 24.9957 94.3746 24.7501ZM94.9043 15.5961C94.8637 15.563 94.8306 15.5203 94.7986 15.4786C94.3404 15.0386 93.8161 14.7674 93.1946 15.0696C91.3492 15.9645 91.0289 18.9717 91.3845 20.7871C91.4486 21.115 91.6493 21.3125 91.8714 20.9761C92.8379 19.5078 93.6527 17.9412 94.4963 16.397C94.6437 16.1268 94.774 15.8652 94.9043 15.5961Z" fill="#611192" style="fill:#611192;fill:color(display-p3 0.3800 0.0671 0.5717);fill-opacity:1;"/>
<path d="M111.9 18.456C111.901 19.1736 111.231 20.1379 110.742 20.8587C109.052 23.3512 105.307 24.2269 102.952 22.1979C101.597 21.0296 101.351 18.9461 101.604 17.2813C102.037 14.477 104.798 11.5211 107.87 12.4437C108.952 12.7684 109.715 13.6259 109.636 14.7867C109.557 15.9838 108.785 17.1222 107.891 17.8793C107.257 18.4133 106.521 18.8094 105.729 19.0476C105.613 19.0839 105.231 19.1191 105.181 19.2131C105.102 19.3786 105.411 19.9702 105.49 20.1219C106.298 21.6863 108.346 21.571 109.484 20.454C110.069 19.8848 110.558 19.2537 110.999 18.5724C111.382 17.9797 111.899 17.7341 111.9 18.456ZM105.152 17.9797C106.024 17.7928 106.832 17.3454 107.459 16.711C107.82 16.3437 108.137 15.9176 108.339 15.4424C108.475 15.1402 108.721 14.4407 108.375 14.1812C107.985 13.8854 107.322 14.289 106.991 14.5197C105.803 15.3452 105.488 16.6427 105.159 17.9583C105.159 17.9733 105.159 17.9733 105.152 17.9797Z" fill="#611192" style="fill:#611192;fill:color(display-p3 0.3800 0.0671 0.5717);fill-opacity:1;"/>
<path d="M40.5679 7.62129C40.4686 7.59353 40.3671 7.56683 40.2624 7.5412C38.965 7.86691 37.2382 8.0634 35.3298 8.0634H35.223C33.3574 8.05592 31.6701 7.85836 30.3993 7.5412L30.0929 7.62236C28.5818 8.17553 28.5999 8.49483 30.095 8.97004C31.3946 9.33633 33.2047 9.56593 35.2241 9.5734L35.3309 9.57447C37.3919 9.57447 39.2426 9.34273 40.5668 8.97004C41.7981 8.57385 41.7671 8.04952 40.5679 7.62129Z" fill="#611192" style="fill:#611192;fill:color(display-p3 0.3800 0.0671 0.5717);fill-opacity:1;"/>
<path d="M41.0571 4.37584C39.577 3.96043 37.5501 3.702 35.3321 3.702H35.2253C33.0489 3.71054 31.0637 3.96683 29.6082 4.37584C27.7981 4.88629 26.6779 5.72993 26.6779 6.78608C26.6779 7.05091 26.7494 7.304 26.884 7.54108C27.2855 6.8352 28.2541 6.26708 29.6082 5.88477C31.0637 5.47577 33.0489 5.21947 35.2253 5.21093H35.3321C37.5501 5.21093 39.577 5.46936 41.0571 5.88477C42.4112 6.26708 43.3798 6.8352 43.7813 7.54108C43.9159 7.30294 43.9874 7.05091 43.9874 6.78608C43.9863 5.72993 42.8672 4.88629 41.0571 4.37584Z" fill="#611192" style="fill:#611192;fill:color(display-p3 0.3800 0.0671 0.5717);fill-opacity:1;"/>
</svg>
