<svg width="112" height="35" viewBox="0 0 112 35" fill="none" xmlns="http://www.w3.org/2000/svg">
<g id="Group 69">
<g id="Group">
<path id="Vector" d="M16.1664 15.5523C15.5332 15.799 14.886 15.9645 14.2314 16.0756C14.1844 17.5183 14.2015 18.9749 14.4728 20.3888C14.7953 22.0718 15.3335 23.7537 15.8407 25.3876C16.3426 27.0033 14.3649 27.7754 13.2564 26.8912C10.1916 24.4478 9.85303 20.0172 9.93953 16.3671C9.9406 16.3286 9.94487 16.2891 9.94487 16.2507C9.4814 16.2347 9.01793 16.2165 8.55767 16.2016C8.11022 16.1877 7.6617 16.1781 7.21212 16.1727C6.80952 19.2226 6.54788 22.2992 6.25421 25.3662C6.14102 26.5409 4.44199 26.9136 4.10667 25.6567C3.31429 22.6751 2.96509 19.5654 3.0911 16.4824C2.40871 16.617 1.7338 16.8007 1.07277 17.0634C0.170399 17.4222 -0.451118 15.9068 0.414947 15.5042C1.33334 15.0771 2.27309 14.7877 3.22993 14.5933C3.55564 11.5263 4.36724 8.51807 5.7192 5.72659C6.02675 5.09119 7.05621 5.54612 6.84583 6.2018C5.99471 8.86193 5.433 11.5819 5.21088 14.3189C5.2632 14.3146 5.31446 14.3125 5.36679 14.3093C5.44047 13.8746 5.50348 13.4379 5.58464 13.0032C6.26062 9.38733 7.10106 5.7597 8.57048 2.3734C9.12366 1.10047 10.1542 -0.124401 11.7304 0.0101535C13.5116 0.161794 14.2709 1.31192 14.5251 3.26617C14.7792 5.22468 14.6329 7.29319 14.5945 9.26132C14.5625 10.8856 14.4215 12.5088 14.3222 14.132C14.8668 14.0957 15.4104 14.0551 15.9539 13.9932C16.9204 13.8832 16.9225 15.2586 16.1664 15.5523ZM10.0399 14.2452C10.2086 11.4612 10.5525 8.67932 10.9455 5.92629C11.0331 5.31011 11.1334 4.69607 11.2466 4.08417C11.2936 3.82787 11.7624 1.90353 11.142 2.11497C10.5813 2.30933 10.3048 3.40499 10.1136 3.90476C9.83808 4.62025 9.60955 5.35283 9.37141 6.08113C8.49893 8.75194 7.92547 11.4793 7.49725 14.2313C7.67665 14.2313 7.85499 14.2292 8.03547 14.2302C8.70397 14.2366 9.37248 14.243 10.0399 14.2452Z" fill="white" style="fill:white;fill-opacity:1;"/>
<path id="Vector_2" d="M29.7287 19.6295C29.0281 21.3371 28.1204 23.4398 25.9067 23.2305C24.8804 23.1322 23.9791 22.1839 23.6182 21.2549C23.2465 20.3034 23.2754 19.276 23.3725 18.2765C23.4516 17.467 23.6 16.6672 23.5509 15.8502C23.5306 15.5181 23.4387 15.0215 23.0212 15.2469C22.7478 15.3942 22.5417 15.721 22.3687 15.9688C21.9437 16.5764 21.649 17.2684 21.3809 17.9561C21.0349 18.8446 20.8085 19.7726 20.674 20.7166C20.5843 21.352 20.6195 22.0878 19.9179 22.3761C19.0134 22.7467 17.6849 21.9244 17.3603 21.0936C17.1499 20.5543 17.1285 19.9627 17.1296 19.3839C17.1328 18.2156 17.2172 17.0463 17.4126 15.894C17.5707 14.965 17.6913 13.8084 18.8671 13.7508C19.4897 13.7209 19.9702 14.2153 20.1187 14.7887C20.3087 15.5224 20.3728 16.3062 20.392 17.0783C20.5608 16.6747 20.753 16.2785 20.9698 15.8919C21.4952 14.9607 22.2363 13.9953 23.1803 13.4571C23.883 13.0566 24.7544 12.9648 25.488 13.3183C27.218 14.1533 26.8058 18.0843 26.6189 20.1357C26.5495 20.895 26.8261 21.2153 27.0546 21.2314C27.7263 21.2741 28.13 20.4966 28.8017 19.2792C28.9587 18.9941 29.2182 18.4089 29.3485 18.1729C29.4563 17.9775 29.6731 17.8675 29.8963 17.9828C30.3982 18.238 29.8739 19.276 29.7287 19.6295Z" fill="white" style="fill:white;fill-opacity:1;"/>
<path id="Vector_3" d="M43.5388 18.5647C42.22 19.3582 41.2044 20.1794 39.9496 21.0593C39.8781 22.9559 39.6399 24.8376 39.2213 26.7405C38.5859 29.6345 36.8634 32.6983 33.9865 33.8698C32.8962 34.313 31.2132 34.36 30.3653 33.385C29.4842 32.3726 29.6135 30.7697 30.1079 29.6239C31.2901 26.8847 33.5326 24.4403 35.7891 22.5437C35.7966 22.5362 35.803 22.5298 35.8179 22.5224C35.9514 21.4288 36.023 20.3289 36.0582 19.2279C35.5723 20.4656 34.9017 21.6744 34.0335 22.5587C32.7926 23.8198 30.6792 23.8604 29.7234 22.2458C28.8189 20.7176 28.883 18.5615 29.2322 16.8849C29.6359 14.9456 30.9697 13.0427 33.0318 12.6668C34.1403 12.482 35.4805 12.7522 36.4864 13.4047C37.4134 12.6134 39.2438 12.7703 39.4958 14.2099C39.7991 15.9762 39.9571 17.735 39.9721 19.4799C41.0314 18.7954 41.8313 18.1386 42.9269 17.5193C43.6029 17.1295 44.2084 18.1675 43.5388 18.5647ZM35.457 24.75C34.5482 25.6438 33.6832 26.5814 32.9335 27.6119C32.2416 28.5634 30.3813 30.8274 31.4267 31.9956C32.7894 33.5206 34.1445 29.8866 34.3667 29.0814C34.6977 27.8864 35.0512 26.6968 35.3192 25.4858C35.3705 25.2401 35.4143 24.9956 35.457 24.75ZM35.9867 15.596C35.9461 15.5629 35.913 15.5202 35.8809 15.4785C35.4228 15.0385 34.8985 14.7673 34.277 15.0695C32.4316 15.9644 32.1113 18.9716 32.4669 20.787C32.531 21.1149 32.7317 21.3124 32.9538 20.976C33.9203 19.5077 34.7351 17.9411 35.5787 16.3969C35.7261 16.1267 35.8564 15.8651 35.9867 15.596Z" fill="white" style="fill:white;fill-opacity:1;"/>
<path id="Vector_4" d="M52.9822 18.4558C52.9833 19.1735 52.3137 20.1378 51.8246 20.8586C50.1341 23.3511 46.389 24.2267 44.0343 22.1977C42.6791 21.0295 42.4335 18.946 42.6866 17.2812C43.1191 14.4769 45.8807 11.5209 48.952 12.4436C50.0337 12.7682 50.7973 13.6258 50.7183 14.7866C50.6392 15.9837 49.8671 17.122 48.9733 17.8792C48.339 18.4131 47.6032 18.8093 46.8108 19.0475C46.6955 19.0838 46.3132 19.119 46.263 19.213C46.184 19.3785 46.4936 19.9701 46.5727 20.1218C47.38 21.6862 49.4272 21.5709 50.5666 20.4539C51.1508 19.8847 51.6398 19.2536 52.0809 18.5722C52.4643 17.9796 52.9811 17.734 52.9822 18.4558ZM46.2341 17.9796C47.1066 17.7927 47.914 17.3452 48.5408 16.7109C48.9018 16.3436 49.2189 15.9175 49.4208 15.4423C49.5575 15.14 49.8031 14.4406 49.4571 14.1811C49.0673 13.8853 48.4041 14.2889 48.0731 14.5196C46.8856 15.3451 46.5705 16.6426 46.2416 17.9582C46.2416 17.9732 46.2416 17.9732 46.2341 17.9796Z" fill="white" style="fill:white;fill-opacity:1;"/>
<path id="Vector_5" d="M63.0429 18.4782C62.556 19.5483 61.4475 21.3754 60.4458 22.5149C59.4142 23.697 57.98 24.7863 56.3365 24.7927C54.1805 24.8002 52.6619 22.7498 52.3095 20.7304C51.956 18.7185 51.7884 16.8326 51.8599 14.7929C51.9966 10.9934 53.0997 6.59577 55.9628 3.89186C57.1887 2.73106 59.3512 2.16828 60.4469 3.81284C61.4998 5.39226 60.9232 7.3166 60.4757 8.9964C59.5605 12.5002 58.0751 15.7594 56.1999 18.8381C56.2362 19.3358 56.2938 19.8334 56.4017 20.3086C56.5523 20.991 56.7359 22.2383 57.6586 22.2148C58.6165 22.1913 59.6705 21.133 60.2472 20.5008C60.9178 19.765 61.6066 18.695 62.1769 17.9656C62.5934 17.4296 63.4092 17.6741 63.0429 18.4782ZM56.1347 16.1705C57.1877 14.0657 58.1178 11.9021 58.8098 9.65316C59.0554 8.86718 59.2711 8.07374 59.4591 7.26641C59.6032 6.64596 59.9642 5.41361 59.3224 4.93733C57.9886 3.96448 57.1524 6.84779 56.9356 7.60493C56.1411 10.3815 56.0909 13.2936 56.1347 16.1705Z" fill="white" style="fill:white;fill-opacity:1;"/>
<path id="Vector_6" d="M76.4979 18.8798C76.4125 18.9962 76.326 19.1115 76.2395 19.2258C74.8523 21.0423 73.1778 22.3408 71.0313 23.1322C69.2255 23.7985 66.8473 24.2449 65.2028 22.9485C64.9689 25.4634 64.7745 27.533 64.8066 30.5092C64.8343 30.9395 64.861 31.3688 64.9027 31.8067C64.9742 32.5606 64.9603 33.683 64.0452 33.9072C63.3062 34.0888 62.8235 33.479 62.5661 32.8553C61.4245 30.0874 61.2846 27.0321 61.4224 24.0762C61.5655 21.0006 61.9051 17.9294 61.8133 14.8464C61.7577 12.9829 64.4659 13.0705 64.6528 14.8464C64.7361 15.6398 64.7852 16.4322 64.8119 17.2246C65.2038 15.9516 65.8029 14.7663 66.8131 14.0006C68.8101 12.5013 71.781 12.9263 72.8553 15.3056C73.6797 17.1434 73.1757 19.5227 72.0416 21.2399C72.1996 21.164 72.3545 21.0807 72.504 20.9846C73.6616 20.2392 74.6803 19.2119 75.5859 18.1729C76.0163 17.6763 76.8877 18.348 76.4979 18.8798ZM70.2101 16.1641C69.9837 14.9852 68.6809 14.8528 67.7134 15.5159C66.6284 16.2571 66.1671 17.5535 65.8777 18.7474C65.6748 19.575 65.5349 20.4176 65.4249 21.2612C65.4954 21.2463 65.5498 21.2302 65.6203 21.2377C67.4784 21.2847 68.9148 20.0118 69.7573 18.6224C70.1877 17.9123 70.3671 16.9907 70.2101 16.1641Z" fill="white" style="fill:white;fill-opacity:1;"/>
<path id="Vector_7" d="M89.1065 18.6248C89.066 19.0722 88.8833 19.7279 88.674 20.2469C88.4508 20.8022 88.1978 21.3501 87.8742 21.8477C87.4492 22.4991 86.896 23.1142 86.1655 23.4228C85.3091 23.7849 84.3213 23.7347 83.5396 23.237C82.5379 22.5995 82.0937 21.4782 81.9388 20.3409C81.5202 21.1696 81.014 21.9449 80.4106 22.5589C79.1698 23.8201 77.0564 23.8607 76.1006 22.246C75.1961 20.7179 75.2602 18.5618 75.6094 16.8852C76.013 14.9459 77.3468 13.0429 79.409 12.667C80.5836 12.4716 82.02 12.7823 83.0409 13.5224C83.3645 13.0835 83.8461 12.824 84.4558 12.9052C85.1842 13.0055 85.7971 13.6473 85.7822 14.412C85.7459 15.6379 85.6231 16.8489 85.5729 18.0748C85.5536 18.5575 85.5056 19.0359 85.5024 19.5186C85.497 20.2576 85.575 22.2151 86.6899 21.0778C87.0605 20.6997 87.337 20.1935 87.5912 19.729C87.8283 19.2965 87.9692 18.8138 88.2405 18.3995C88.5427 17.9371 89.1589 18.0503 89.1065 18.6248ZM82.3222 15.3955C82.3008 15.372 82.2773 15.3496 82.2581 15.3239C81.8 14.884 81.2756 14.6127 80.6541 14.9149C78.8088 15.8098 78.4884 18.817 78.844 20.6324C78.9081 20.9603 79.1099 21.1578 79.331 20.8215C80.2975 19.3531 81.1123 17.7865 81.9559 16.2423C82.0723 16.0309 82.1748 15.8216 82.2773 15.6123C82.2955 15.5407 82.304 15.466 82.3222 15.3955Z" fill="white" style="fill:white;fill-opacity:1;"/>
<path id="Vector_8" d="M102.456 18.5647C101.138 19.3582 100.122 20.1794 98.8672 21.0593C98.7946 22.9559 98.5575 24.8376 98.1389 26.7405C97.5035 29.6345 95.781 32.6983 92.9041 33.8698C91.8138 34.313 90.1308 34.36 89.2829 33.385C88.4018 32.3726 88.5311 30.7697 89.0255 29.6239C90.2077 26.8847 92.4502 24.4403 94.7067 22.5437C94.7142 22.5362 94.7206 22.5298 94.7355 22.5224C94.869 21.4288 94.9406 20.3289 94.9758 19.2279C94.4899 20.4656 93.8193 21.6744 92.9511 22.5587C91.7102 23.8198 89.5968 23.8604 88.641 22.2458C87.7365 20.7176 87.8006 18.5615 88.1498 16.8849C88.5535 14.9456 89.8873 13.0427 91.9494 12.6668C93.0579 12.482 94.3981 12.7522 95.404 13.4047C96.331 12.6134 98.1614 12.7703 98.4134 14.2099C98.7167 15.9762 98.8747 17.735 98.8897 19.4799C99.949 18.7954 100.749 18.1386 101.845 17.5193C102.521 17.1295 103.126 18.1675 102.456 18.5647ZM94.3746 24.75C93.4658 25.6438 92.6008 26.5814 91.8511 27.6119C91.1592 28.5634 89.2989 30.8274 90.3443 31.9956C91.707 33.5206 93.0621 29.8866 93.2843 29.0814C93.6153 27.8864 93.9688 26.6968 94.2368 25.4858C94.2881 25.2401 94.3319 24.9956 94.3746 24.75ZM94.9043 15.596C94.8637 15.5629 94.8306 15.5202 94.7985 15.4785C94.3404 15.0385 93.8161 14.7673 93.1946 15.0695C91.3492 15.9644 91.0289 18.9716 91.3845 20.787C91.4486 21.1149 91.6493 21.3124 91.8714 20.976C92.8379 19.5077 93.6527 17.9411 94.4963 16.3969C94.6437 16.1267 94.774 15.8651 94.9043 15.596Z" fill="white" style="fill:white;fill-opacity:1;"/>
<path id="Vector_9" d="M111.9 18.4558C111.901 19.1735 111.231 20.1378 110.742 20.8586C109.052 23.3511 105.307 24.2267 102.952 22.1977C101.597 21.0295 101.351 18.946 101.604 17.2812C102.037 14.4769 104.798 11.5209 107.87 12.4436C108.952 12.7682 109.715 13.6258 109.636 14.7866C109.557 15.9837 108.785 17.122 107.891 17.8792C107.257 18.4131 106.521 18.8093 105.729 19.0475C105.613 19.0838 105.231 19.119 105.181 19.213C105.102 19.3785 105.411 19.9701 105.49 20.1218C106.298 21.6862 108.346 21.5709 109.484 20.4539C110.069 19.8847 110.558 19.2536 110.999 18.5722C111.382 17.9796 111.899 17.734 111.9 18.4558ZM105.152 17.9796C106.024 17.7927 106.832 17.3452 107.459 16.7109C107.82 16.3436 108.137 15.9175 108.339 15.4423C108.475 15.14 108.721 14.4406 108.375 14.1811C107.985 13.8853 107.322 14.2889 106.991 14.5196C105.803 15.3451 105.488 16.6426 105.159 17.9582C105.159 17.9732 105.159 17.9732 105.152 17.9796Z" fill="white" style="fill:white;fill-opacity:1;"/>
</g>
<g id="Group_2">
<g id="Group_3">
<path id="Vector_10" d="M40.5679 7.62111C40.4685 7.59334 40.3671 7.56665 40.2624 7.54102C38.965 7.86672 37.2382 8.06321 35.3298 8.06321H35.223C33.3574 8.05574 31.6701 7.85818 30.3993 7.54102L30.0929 7.62217C28.5818 8.17534 28.5999 8.49464 30.095 8.96986C31.3946 9.33614 33.2047 9.56574 35.2241 9.57322L35.3309 9.57428C37.3919 9.57428 39.2426 9.34255 40.5668 8.96986C41.7981 8.57367 41.7671 8.04933 40.5679 7.62111Z" fill="white" style="fill:white;fill-opacity:1;"/>
</g>
<g id="Group_4">
<path id="Vector_11" d="M41.0571 4.37575C39.577 3.96033 37.5501 3.7019 35.3321 3.7019H35.2253C33.0489 3.71045 31.0637 3.96674 29.6082 4.37575C27.7981 4.8862 26.6779 5.72984 26.6779 6.78598C26.6779 7.05082 26.7494 7.30391 26.884 7.54099C27.2855 6.83511 28.2541 6.26699 29.6082 5.88468C31.0637 5.47568 33.0489 5.21938 35.2253 5.21084H35.3321C37.5501 5.21084 39.577 5.46927 41.0571 5.88468C42.4112 6.26699 43.3798 6.83511 43.7813 7.54099C43.9158 7.30285 43.9874 7.05082 43.9874 6.78598C43.9863 5.72984 42.8672 4.8862 41.0571 4.37575Z" fill="white" style="fill:white;fill-opacity:1;"/>
</g>
</g>
</g>
</svg>
