<svg width="21" height="21" viewBox="0 0 21 21" fill="none" xmlns="http://www.w3.org/2000/svg">
<g id="Edit Square">
<path id="Stroke 1" d="M9.4923 0.789062H5.7533C2.6783 0.789062 0.750305 2.96606 0.750305 6.04806V14.3621C0.750305 17.4441 2.6693 19.6211 5.7533 19.6211H14.5773C17.6623 19.6211 19.5813 17.4441 19.5813 14.3621V10.3341" stroke="#8A888C" style="stroke:#8A888C;stroke:color(display-p3 0.5426 0.5345 0.5483);stroke-opacity:1;" stroke-width="1.5" stroke-linecap="round" stroke-linejoin="round"/>
<path id="Stroke 3" fill-rule="evenodd" clip-rule="evenodd" d="M6.8278 8.9205L14.3008 1.4475C15.2318 0.5175 16.7408 0.5175 17.6718 1.4475L18.8888 2.6645C19.8198 3.5955 19.8198 5.1055 18.8888 6.0355L11.3798 13.5445C10.9728 13.9515 10.4208 14.1805 9.8448 14.1805H6.0988L6.1928 10.4005C6.2068 9.8445 6.4338 9.3145 6.8278 8.9205Z" stroke="#8A888C" style="stroke:#8A888C;stroke:color(display-p3 0.5426 0.5345 0.5483);stroke-opacity:1;" stroke-width="1.5" stroke-linecap="round" stroke-linejoin="round"/>
<path id="Stroke 5" d="M13.1652 2.60156L17.7312 7.16756" stroke="#8A888C" style="stroke:#8A888C;stroke:color(display-p3 0.5426 0.5345 0.5483);stroke-opacity:1;" stroke-width="1.5" stroke-linecap="round" stroke-linejoin="round"/>
</g>
</svg>
