<svg width="112" height="35" viewBox="0 0 112 35" fill="none" xmlns="http://www.w3.org/2000/svg">
<g id="Group 69">
<g id="Group">
<path id="Vector" d="M16.1664 15.5523C15.5332 15.799 14.886 15.9645 14.2314 16.0756C14.1844 17.5183 14.2015 18.9749 14.4728 20.3888C14.7953 22.0718 15.3335 23.7537 15.8407 25.3876C16.3426 27.0033 14.3649 27.7754 13.2564 26.8912C10.1916 24.4478 9.85303 20.0172 9.93953 16.3671C9.9406 16.3286 9.94487 16.2891 9.94487 16.2507C9.4814 16.2347 9.01793 16.2165 8.55767 16.2016C8.11022 16.1877 7.6617 16.1781 7.21212 16.1727C6.80952 19.2226 6.54788 22.2992 6.25421 25.3662C6.14102 26.5409 4.44199 26.9136 4.10667 25.6567C3.31429 22.6751 2.96509 19.5654 3.0911 16.4824C2.40871 16.617 1.7338 16.8007 1.07277 17.0634C0.170399 17.4222 -0.451118 15.9068 0.414947 15.5042C1.33334 15.0771 2.27309 14.7877 3.22993 14.5933C3.55564 11.5263 4.36724 8.51807 5.7192 5.72659C6.02675 5.09119 7.05621 5.54612 6.84583 6.2018C5.99471 8.86193 5.433 11.5819 5.21088 14.3189C5.2632 14.3146 5.31446 14.3125 5.36679 14.3093C5.44047 13.8746 5.50348 13.4379 5.58464 13.0032C6.26062 9.38733 7.10106 5.7597 8.57048 2.3734C9.12366 1.10047 10.1542 -0.124401 11.7304 0.0101535C13.5116 0.161794 14.2709 1.31192 14.5251 3.26617C14.7792 5.22468 14.6329 7.29319 14.5945 9.26132C14.5625 10.8856 14.4215 12.5088 14.3222 14.132C14.8668 14.0957 15.4104 14.0551 15.9539 13.9932C16.9204 13.8832 16.9225 15.2586 16.1664 15.5523ZM10.0399 14.2452C10.2086 11.4612 10.5525 8.67932 10.9455 5.92629C11.0331 5.31011 11.1334 4.69607 11.2466 4.08417C11.2936 3.82787 11.7624 1.90353 11.142 2.11497C10.5813 2.30933 10.3048 3.40499 10.1136 3.90476C9.83808 4.62025 9.60955 5.35283 9.37141 6.08113C8.49893 8.75194 7.92547 11.4793 7.49725 14.2313C7.67665 14.2313 7.85499 14.2292 8.03547 14.2302C8.70397 14.2366 9.37248 14.243 10.0399 14.2452Z" fill="#611192" style="fill:#611192;fill:color(display-p3 0.3800 0.0671 0.5717);fill-opacity:1;"/>
<path id="Vector_2" d="M29.7286 19.6288C29.0281 21.3363 28.1204 23.439 25.9066 23.2297C24.8804 23.1315 23.9791 22.1832 23.6181 21.2541C23.2465 20.3026 23.2753 19.2753 23.3725 18.2758C23.4515 17.4663 23.6 16.6664 23.5509 15.8495C23.5306 15.5174 23.4387 15.0208 23.0212 15.2461C22.7478 15.3935 22.5417 15.7203 22.3687 15.968C21.9437 16.5757 21.6489 17.2677 21.3809 17.9554C21.0349 18.8439 20.8085 19.7719 20.6739 20.7159C20.5842 21.3513 20.6195 22.0871 19.9179 22.3754C19.0134 22.746 17.6849 21.9237 17.3603 21.0929C17.1499 20.5536 17.1285 19.962 17.1296 19.3832C17.1328 18.2149 17.2172 17.0455 17.4126 15.8933C17.5706 14.9642 17.6913 13.8077 18.8671 13.75C19.4897 13.7201 19.9702 14.2146 20.1186 14.788C20.3087 15.5217 20.3728 16.3055 20.392 17.0776C20.5608 16.6739 20.753 16.2777 20.9698 15.8911C21.4952 14.9599 22.2363 13.9946 23.1803 13.4564C23.883 13.0559 24.7544 12.9641 25.488 13.3175C27.218 14.1526 26.8058 18.0835 26.6189 20.135C26.5495 20.8942 26.8261 21.2146 27.0546 21.2306C27.7263 21.2733 28.13 20.4959 28.8017 19.2785C28.9587 18.9934 29.2182 18.4082 29.3485 18.1722C29.4563 17.9767 29.6731 17.8668 29.8963 17.9821C30.3982 18.2373 29.8739 19.2753 29.7286 19.6288Z" fill="#611192" style="fill:#611192;fill:color(display-p3 0.3800 0.0671 0.5717);fill-opacity:1;"/>
<path id="Vector_3" d="M43.5388 18.5642C42.22 19.3577 41.2044 20.1789 39.9496 21.0589C39.8781 22.9554 39.6399 24.8371 39.2213 26.7401C38.5859 29.634 36.8634 32.6978 33.9865 33.8693C32.8962 34.3125 31.2132 34.3595 30.3653 33.3845C29.4842 32.3721 29.6135 30.7692 30.1079 29.6234C31.2901 26.8842 33.5326 24.4398 35.7891 22.5432C35.7966 22.5357 35.803 22.5293 35.8179 22.5219C35.9514 21.4283 36.023 20.3284 36.0582 19.2274C35.5723 20.4651 34.9017 21.674 34.0335 22.5582C32.7926 23.8194 30.6792 23.8599 29.7234 22.2453C28.8189 20.7171 28.883 18.561 29.2322 16.8845C29.6359 14.9452 30.9697 13.0422 33.0318 12.6663C34.1403 12.4815 35.4805 12.7517 36.4864 13.4042C37.4134 12.6129 39.2438 12.7699 39.4958 14.2094C39.7991 15.9757 39.9571 17.7345 39.9721 19.4794C41.0314 18.7949 41.8313 18.1382 42.9269 17.5188C43.6029 17.129 44.2084 18.167 43.5388 18.5642ZM35.457 24.7495C34.5482 25.6433 33.6832 26.5809 32.9335 27.6114C32.2416 28.5629 30.3813 30.8269 31.4267 31.9952C32.7894 33.5201 34.1445 29.8861 34.3667 29.0809C34.6977 27.8859 35.0512 26.6963 35.3192 25.4853C35.3705 25.2397 35.4143 24.9951 35.457 24.7495ZM35.9867 15.5955C35.9461 15.5624 35.913 15.5197 35.8809 15.478C35.4228 15.0381 34.8985 14.7668 34.277 15.069C32.4316 15.9639 32.1113 18.9711 32.4669 20.7865C32.531 21.1144 32.7317 21.3119 32.9538 20.9756C33.9203 19.5072 34.7351 17.9406 35.5787 16.3964C35.7261 16.1262 35.8564 15.8646 35.9867 15.5955Z" fill="#611192" style="fill:#611192;fill:color(display-p3 0.3800 0.0671 0.5717);fill-opacity:1;"/>
<path id="Vector_4" d="M52.9822 18.4578C52.9833 19.1754 52.3137 20.1397 51.8246 20.8606C50.1341 23.353 46.389 24.2287 44.0343 22.1997C42.6791 21.0314 42.4335 18.948 42.6866 17.2831C43.1191 14.4788 45.8807 11.5229 48.952 12.4456C50.0337 12.7702 50.7973 13.6277 50.7183 14.7885C50.6392 15.9856 49.8672 17.124 48.9733 17.8811C48.339 18.4151 47.6032 18.8113 46.8108 19.0494C46.6955 19.0857 46.3132 19.121 46.263 19.2149C46.184 19.3805 46.4937 19.9721 46.5727 20.1237C47.38 21.6882 49.4272 21.5729 50.5666 20.4558C51.1508 19.8866 51.6399 19.2555 52.0809 18.5742C52.4643 17.9815 52.9811 17.7359 52.9822 18.4578ZM46.2342 17.9815C47.1066 17.7946 47.914 17.3472 48.5408 16.7129C48.9018 16.3455 49.2189 15.9194 49.4208 15.4442C49.5575 15.142 49.8031 14.4425 49.4571 14.183C49.0673 13.8872 48.4041 14.2909 48.0731 14.5215C46.8856 15.347 46.5706 16.6445 46.2416 17.9602C46.2416 17.9751 46.2416 17.9751 46.2342 17.9815Z" fill="#611192" style="fill:#611192;fill:color(display-p3 0.3800 0.0671 0.5717);fill-opacity:1;"/>
<path id="Vector_5" d="M63.043 18.4765C62.556 19.5466 61.4475 21.3737 60.4458 22.5132C59.4142 23.6953 57.9801 24.7846 56.3366 24.791C54.1805 24.7985 52.6619 22.7481 52.3095 20.7287C51.9561 18.7168 51.7884 16.8309 51.8599 14.7912C51.9966 10.9917 53.0998 6.59406 55.9628 3.89016C57.1887 2.72935 59.3512 2.16658 60.4469 3.81113C61.4998 5.39055 60.9232 7.31489 60.4757 8.99469C59.5605 12.4984 58.0751 15.7577 56.1999 18.8364C56.2362 19.334 56.2938 19.8317 56.4017 20.3069C56.5523 20.9893 56.736 22.2366 57.6586 22.2131C58.6165 22.1896 59.6705 21.1313 60.2472 20.4991C60.9178 19.7633 61.6066 18.6933 62.1769 17.9639C62.5934 17.4278 63.4092 17.6724 63.043 18.4765ZM56.1347 16.1688C57.1877 14.064 58.1178 11.9004 58.8098 9.65145C59.0554 8.86548 59.2711 8.07203 59.4591 7.2647C59.6033 6.64426 59.9642 5.41191 59.3224 4.93562C57.9886 3.96277 57.1524 6.84609 56.9357 7.60322C56.1411 10.3797 56.0909 13.2919 56.1347 16.1688Z" fill="#611192" style="fill:#611192;fill:color(display-p3 0.3800 0.0671 0.5717);fill-opacity:1;"/>
<path id="Vector_6" d="M76.4979 18.8786C76.4125 18.995 76.326 19.1103 76.2395 19.2246C74.8523 21.0411 73.1778 22.3396 71.0313 23.1309C69.2255 23.7973 66.8473 24.2437 65.2028 22.9473C64.9689 25.4622 64.7745 27.5317 64.8066 30.508C64.8343 30.9383 64.861 31.3676 64.9027 31.8054C64.9742 32.5594 64.9603 33.6817 64.0452 33.906C63.3062 34.0875 62.8235 33.4778 62.5661 32.8541C61.4245 30.0861 61.2846 27.0309 61.4224 24.075C61.5655 20.9994 61.9051 17.9282 61.8133 14.8451C61.7577 12.9817 64.4659 13.0692 64.6528 14.8451C64.7361 15.6386 64.7852 16.431 64.8119 17.2233C65.2038 15.9504 65.8029 14.7651 66.8131 13.9994C68.8101 12.5 71.781 12.9251 72.8553 15.3043C73.6797 17.1422 73.1757 19.5215 72.0416 21.2386C72.1996 21.1628 72.3545 21.0795 72.504 20.9834C73.6616 20.238 74.6803 19.2107 75.5859 18.1716C76.0163 17.6751 76.8877 18.3468 76.4979 18.8786ZM70.2101 16.1629C69.9837 14.984 68.6809 14.8516 67.7134 15.5147C66.6284 16.2558 66.1671 17.5523 65.8777 18.7462C65.6748 19.5738 65.5349 20.4164 65.4249 21.26C65.4954 21.245 65.5498 21.229 65.6203 21.2365C67.4784 21.2835 68.9148 20.0106 69.7573 18.6212C70.1877 17.9111 70.3671 16.9895 70.2101 16.1629Z" fill="#611192" style="fill:#611192;fill:color(display-p3 0.3800 0.0671 0.5717);fill-opacity:1;"/>
<path id="Vector_7" d="M89.1065 18.6243C89.066 19.0718 88.8833 19.7274 88.674 20.2464C88.4508 20.8017 88.1978 21.3496 87.8742 21.8472C87.4492 22.4986 86.896 23.1137 86.1655 23.4224C85.3091 23.7844 84.3213 23.7342 83.5396 23.2365C82.5379 22.599 82.0937 21.4777 81.9388 20.3404C81.5202 21.1691 81.014 21.9444 80.4106 22.5584C79.1698 23.8196 77.0564 23.8602 76.1006 22.2455C75.1961 20.7174 75.2602 18.5613 75.6094 16.8847C76.013 14.9454 77.3468 13.0424 79.409 12.6665C80.5836 12.4711 82.02 12.7819 83.0409 13.5219C83.3645 13.083 83.8461 12.8235 84.4558 12.9047C85.1842 13.005 85.7971 13.6469 85.7822 14.4115C85.7459 15.6374 85.6231 16.8484 85.5729 18.0743C85.5536 18.557 85.5056 19.0355 85.5024 19.5181C85.497 20.2571 85.575 22.2146 86.6899 21.0773C87.0605 20.6992 87.337 20.193 87.5912 19.7285C87.8283 19.296 87.9692 18.8133 88.2405 18.399C88.5427 17.9366 89.1589 18.0498 89.1065 18.6243ZM82.3222 15.395C82.3008 15.3715 82.2773 15.3491 82.2581 15.3234C81.8 14.8835 81.2756 14.6122 80.6541 14.9144C78.8088 15.8093 78.4884 18.8165 78.844 20.632C78.9081 20.9598 79.1099 21.1574 79.331 20.821C80.2975 19.3526 81.1123 17.786 81.9559 16.2418C82.0723 16.0304 82.1748 15.8211 82.2773 15.6118C82.2955 15.5402 82.304 15.4655 82.3222 15.395Z" fill="#611192" style="fill:#611192;fill:color(display-p3 0.3800 0.0671 0.5717);fill-opacity:1;"/>
<path id="Vector_8" d="M102.456 18.5642C101.138 19.3577 100.122 20.1789 98.8672 21.0589C98.7946 22.9554 98.5575 24.8371 98.1389 26.7401C97.5035 29.634 95.781 32.6978 92.9041 33.8693C91.8138 34.3125 90.1308 34.3595 89.2829 33.3845C88.4018 32.3721 88.5311 30.7692 89.0255 29.6234C90.2077 26.8842 92.4502 24.4398 94.7067 22.5432C94.7142 22.5357 94.7206 22.5293 94.7355 22.5219C94.869 21.4283 94.9406 20.3284 94.9758 19.2274C94.4899 20.4651 93.8193 21.674 92.9511 22.5582C91.7102 23.8194 89.5968 23.8599 88.641 22.2453C87.7365 20.7171 87.8006 18.561 88.1498 16.8845C88.5535 14.9452 89.8873 13.0422 91.9494 12.6663C93.0579 12.4815 94.3981 12.7517 95.404 13.4042C96.331 12.6129 98.1614 12.7699 98.4134 14.2094C98.7167 15.9757 98.8747 17.7345 98.8897 19.4794C99.949 18.7949 100.749 18.1382 101.845 17.5188C102.521 17.129 103.126 18.167 102.456 18.5642ZM94.3746 24.7495C93.4658 25.6433 92.6008 26.5809 91.8511 27.6114C91.1592 28.5629 89.2989 30.8269 90.3443 31.9952C91.707 33.5201 93.0621 29.8861 93.2843 29.0809C93.6153 27.8859 93.9688 26.6963 94.2368 25.4853C94.2881 25.2397 94.3319 24.9951 94.3746 24.7495ZM94.9043 15.5955C94.8637 15.5624 94.8306 15.5197 94.7985 15.478C94.3404 15.0381 93.8161 14.7668 93.1946 15.069C91.3492 15.9639 91.0289 18.9711 91.3845 20.7865C91.4486 21.1144 91.6493 21.3119 91.8714 20.9756C92.8379 19.5072 93.6527 17.9406 94.4963 16.3964C94.6437 16.1262 94.774 15.8646 94.9043 15.5955Z" fill="#611192" style="fill:#611192;fill:color(display-p3 0.3800 0.0671 0.5717);fill-opacity:1;"/>
<path id="Vector_9" d="M111.9 18.4578C111.901 19.1754 111.231 20.1397 110.742 20.8606C109.052 23.353 105.307 24.2287 102.952 22.1997C101.597 21.0314 101.351 18.948 101.604 17.2831C102.037 14.4788 104.798 11.5229 107.87 12.4456C108.952 12.7702 109.715 13.6277 109.636 14.7885C109.557 15.9856 108.785 17.124 107.891 17.8811C107.257 18.4151 106.521 18.8113 105.729 19.0494C105.613 19.0857 105.231 19.121 105.181 19.2149C105.102 19.3805 105.411 19.9721 105.49 20.1237C106.298 21.6882 108.346 21.5729 109.484 20.4558C110.069 19.8866 110.558 19.2555 110.999 18.5742C111.382 17.9815 111.899 17.7359 111.9 18.4578ZM105.152 17.9815C106.024 17.7946 106.832 17.3472 107.459 16.7129C107.82 16.3455 108.137 15.9194 108.339 15.4442C108.475 15.142 108.721 14.4425 108.375 14.183C107.985 13.8872 107.322 14.2909 106.991 14.5215C105.803 15.347 105.488 16.6445 105.159 17.9602C105.159 17.9751 105.159 17.9751 105.152 17.9815Z" fill="#611192" style="fill:#611192;fill:color(display-p3 0.3800 0.0671 0.5717);fill-opacity:1;"/>
</g>
<g id="Group_2">
<g id="Group_3">
<path id="Vector_10" d="M40.5679 7.62306C40.4685 7.5953 40.3671 7.5686 40.2624 7.54297C38.965 7.86868 37.2382 8.06517 35.3298 8.06517H35.223C33.3574 8.05769 31.6701 7.86013 30.3993 7.54297L30.0929 7.62413C28.5818 8.1773 28.5999 8.4966 30.095 8.97181C31.3946 9.3381 33.2047 9.5677 35.2241 9.57517L35.3309 9.57624C37.3919 9.57624 39.2426 9.3445 40.5668 8.97181C41.7981 8.57562 41.7671 8.05129 40.5679 7.62306Z" fill="#611192" style="fill:#611192;fill:color(display-p3 0.3800 0.0671 0.5717);fill-opacity:1;"/>
</g>
<g id="Group_4">
<path id="Vector_11" d="M41.0571 4.37697C39.577 3.96156 37.5501 3.70312 35.3321 3.70312H35.2253C33.0489 3.71167 31.0637 3.96796 29.6082 4.37697C27.7981 4.88742 26.6779 5.73106 26.6779 6.7872C26.6779 7.05204 26.7494 7.30513 26.884 7.54221C27.2855 6.83633 28.2541 6.26821 29.6082 5.8859C31.0637 5.4769 33.0489 5.2206 35.2253 5.21206H35.3321C37.5501 5.21206 39.577 5.47049 41.0571 5.8859C42.4112 6.26821 43.3798 6.83633 43.7813 7.54221C43.9159 7.30407 43.9874 7.05204 43.9874 6.7872C43.9863 5.73106 42.8672 4.88742 41.0571 4.37697Z" fill="#611192" style="fill:#611192;fill:color(display-p3 0.3800 0.0671 0.5717);fill-opacity:1;"/>
</g>
</g>
</g>
</svg>
