<svg width="72" height="72" viewBox="0 0 72 72" fill="none" xmlns="http://www.w3.org/2000/svg">
<circle cx="36" cy="36" r="36" fill="#0B0112" style="fill:#0B0112;fill:color(display-p3 0.0445 0.0046 0.0690);fill-opacity:1;"/>
<path d="M20.216 30.576H25.256C26.0667 30.576 26.728 30.6933 27.24 30.928C27.752 31.1627 28.1467 31.456 28.424 31.808C28.7013 32.16 28.888 32.544 28.984 32.96C29.0907 33.376 29.144 33.76 29.144 34.112C29.144 34.464 29.0907 34.848 28.984 35.264C28.888 35.6693 28.7013 36.048 28.424 36.4C28.1467 36.752 27.752 37.0453 27.24 37.28C26.728 37.504 26.0667 37.616 25.256 37.616H22.216V42H20.216V30.576ZM22.216 35.984H25.144C25.368 35.984 25.5973 35.952 25.832 35.888C26.0667 35.824 26.28 35.7227 26.472 35.584C26.6747 35.4347 26.8347 35.2427 26.952 35.008C27.08 34.7627 27.144 34.4587 27.144 34.096C27.144 33.7227 27.0907 33.4133 26.984 33.168C26.8773 32.9227 26.7333 32.7307 26.552 32.592C26.3707 32.4427 26.1627 32.3413 25.928 32.288C25.6933 32.2347 25.4427 32.208 25.176 32.208H22.216V35.984ZM37.5599 40.16C37.5599 40.384 37.5865 40.544 37.6399 40.64C37.7039 40.736 37.8212 40.784 37.9919 40.784C38.0452 40.784 38.1092 40.784 38.1839 40.784C38.2585 40.784 38.3439 40.7733 38.4399 40.752V42.016C38.3759 42.0373 38.2905 42.0587 38.1839 42.08C38.0879 42.112 37.9865 42.1387 37.8799 42.16C37.7732 42.1813 37.6665 42.1973 37.5599 42.208C37.4532 42.2187 37.3625 42.224 37.2879 42.224C36.9145 42.224 36.6052 42.1493 36.3599 42C36.1145 41.8507 35.9545 41.5893 35.8799 41.216C35.5172 41.568 35.0692 41.824 34.5359 41.984C34.0132 42.144 33.5065 42.224 33.0159 42.224C32.6425 42.224 32.2852 42.1707 31.9439 42.064C31.6025 41.968 31.2985 41.824 31.0319 41.632C30.7759 41.4293 30.5679 41.1787 30.4079 40.88C30.2585 40.5707 30.1839 40.2133 30.1839 39.808C30.1839 39.296 30.2745 38.88 30.4559 38.56C30.6479 38.24 30.8932 37.9893 31.1919 37.808C31.5012 37.6267 31.8425 37.4987 32.2159 37.424C32.5999 37.3387 32.9839 37.2747 33.3679 37.232C33.6985 37.168 34.0132 37.1253 34.3119 37.104C34.6105 37.072 34.8719 37.024 35.0959 36.96C35.3305 36.896 35.5119 36.8 35.6399 36.672C35.7785 36.5333 35.8479 36.3307 35.8479 36.064C35.8479 35.8293 35.7892 35.6373 35.6719 35.488C35.5652 35.3387 35.4265 35.2267 35.2559 35.152C35.0959 35.0667 34.9145 35.0133 34.7119 34.992C34.5092 34.96 34.3172 34.944 34.1359 34.944C33.6239 34.944 33.2025 35.0507 32.8719 35.264C32.5412 35.4773 32.3545 35.808 32.3119 36.256H30.4879C30.5199 35.7227 30.6479 35.28 30.8719 34.928C31.0959 34.576 31.3785 34.2933 31.7199 34.08C32.0719 33.8667 32.4665 33.7173 32.9039 33.632C33.3412 33.5467 33.7892 33.504 34.2479 33.504C34.6532 33.504 35.0532 33.5467 35.4479 33.632C35.8425 33.7173 36.1945 33.856 36.5039 34.048C36.8239 34.24 37.0799 34.4907 37.2719 34.8C37.4639 35.0987 37.5599 35.4667 37.5599 35.904V40.16ZM35.7359 37.856C35.4585 38.0373 35.1172 38.1493 34.7119 38.192C34.3065 38.224 33.9012 38.2773 33.4959 38.352C33.3039 38.384 33.1172 38.432 32.9359 38.496C32.7545 38.5493 32.5945 38.6293 32.4559 38.736C32.3172 38.832 32.2052 38.9653 32.1199 39.136C32.0452 39.296 32.0079 39.4933 32.0079 39.728C32.0079 39.9307 32.0665 40.1013 32.1839 40.24C32.3012 40.3787 32.4399 40.4907 32.5999 40.576C32.7705 40.6507 32.9519 40.704 33.1439 40.736C33.3465 40.768 33.5279 40.784 33.6879 40.784C33.8905 40.784 34.1092 40.7573 34.3439 40.704C34.5785 40.6507 34.7972 40.56 34.9999 40.432C35.2132 40.304 35.3892 40.144 35.5279 39.952C35.6665 39.7493 35.7359 39.504 35.7359 39.216V37.856ZM39.5705 30.576H41.3945V32.304H39.5705V30.576ZM39.5705 33.728H41.3945V42H39.5705V33.728ZM51.1739 42H49.4459V40.88H49.4139C49.1685 41.36 48.8112 41.7067 48.3419 41.92C47.8725 42.1227 47.3765 42.224 46.8539 42.224C46.2032 42.224 45.6325 42.112 45.1419 41.888C44.6619 41.6533 44.2619 41.3387 43.9419 40.944C43.6219 40.5493 43.3819 40.0853 43.2219 39.552C43.0619 39.008 42.9819 38.4267 42.9819 37.808C42.9819 37.0613 43.0832 36.416 43.2859 35.872C43.4885 35.328 43.7552 34.88 44.0859 34.528C44.4272 34.176 44.8112 33.92 45.2379 33.76C45.6752 33.5893 46.1179 33.504 46.5659 33.504C46.8219 33.504 47.0832 33.5307 47.3499 33.584C47.6165 33.6267 47.8725 33.7013 48.1179 33.808C48.3632 33.9147 48.5872 34.0533 48.7899 34.224C49.0032 34.384 49.1792 34.576 49.3179 34.8H49.3499V30.576H51.1739V42ZM44.8059 37.952C44.8059 38.304 44.8485 38.6507 44.9339 38.992C45.0299 39.3333 45.1685 39.6373 45.3499 39.904C45.5419 40.1707 45.7819 40.384 46.0699 40.544C46.3579 40.704 46.6992 40.784 47.0939 40.784C47.4992 40.784 47.8459 40.6987 48.1339 40.528C48.4325 40.3573 48.6725 40.1333 48.8539 39.856C49.0459 39.5787 49.1845 39.2693 49.2699 38.928C49.3659 38.576 49.4139 38.2187 49.4139 37.856C49.4139 36.9387 49.2059 36.224 48.7899 35.712C48.3845 35.2 47.8299 34.944 47.1259 34.944C46.6992 34.944 46.3365 35.0347 46.0379 35.216C45.7499 35.3867 45.5099 35.616 45.3179 35.904C45.1365 36.1813 45.0032 36.5013 44.9179 36.864C44.8432 37.216 44.8059 37.5787 44.8059 37.952Z" fill="white" style="fill:white;fill-opacity:1;"/>
</svg>
