<svg width="38" height="51" viewBox="0 0 38 51" fill="none" xmlns="http://www.w3.org/2000/svg">
<g id="Group 69">
<g id="Group">
<path id="Vector" d="M32.333 35.8901C31.0664 36.2046 29.7721 36.4157 28.4629 36.5573C28.3689 38.397 28.4031 40.2544 28.9456 42.0573C29.5906 44.2034 30.6671 46.3481 31.6816 48.4316C32.6854 50.4919 28.7299 51.4764 26.5129 50.3489C20.3832 47.2333 19.7061 41.5835 19.8791 36.9291C19.8812 36.8801 19.8898 36.8297 19.8898 36.7807C18.9629 36.7602 18.0359 36.7371 17.1154 36.718C16.2205 36.7003 15.3234 36.6881 14.4243 36.6812C13.6191 40.5703 13.0958 44.4935 12.5085 48.4043C12.2821 49.9022 8.88401 50.3775 8.21336 48.7747C6.6286 44.9728 5.93019 41.0075 6.18222 37.0761C4.81744 37.2477 3.46761 37.4819 2.14555 37.8169C0.340799 38.2745 -0.902239 36.3422 0.829897 35.8288C2.66669 35.2841 4.54619 34.9151 6.45987 34.6673C7.11129 30.7564 8.7345 26.9204 11.4384 23.3609C12.0535 22.5506 14.1124 23.1307 13.6917 23.9668C11.9895 27.3589 10.866 30.8272 10.4218 34.3173C10.5264 34.3118 10.629 34.3091 10.7336 34.305C10.881 33.7508 11.007 33.1939 11.1693 32.6397C12.5213 28.0288 14.2022 23.4031 17.141 19.085C18.2474 17.4619 20.3084 15.9 23.4609 16.0715C27.0234 16.2649 28.5419 17.7315 29.0502 20.2234C29.5586 22.7208 29.266 25.3585 29.1891 27.8682C29.125 29.9393 28.8431 32.0092 28.6444 34.079C29.7337 34.0327 30.8208 33.9809 31.908 33.902C33.8409 33.7617 33.8451 35.5156 32.333 35.8901ZM20.0799 34.2233C20.4173 30.6733 21.1051 27.126 21.891 23.6155C22.0662 22.8298 22.2669 22.0468 22.4933 21.2665C22.5873 20.9397 23.5249 18.4859 22.284 18.7555C21.1627 19.0033 20.6096 20.4005 20.2272 21.0378C19.6762 21.9501 19.2191 22.8843 18.7429 23.8129C16.9979 27.2186 15.851 30.6965 14.9945 34.2056C15.3533 34.2056 15.71 34.2029 16.071 34.2043C17.408 34.2124 18.745 34.2206 20.0799 34.2233Z" fill="#0B0112" style="fill:#0B0112;fill:color(display-p3 0.0445 0.0046 0.0690);fill-opacity:1;"/>
</g>
<g id="Group_2">
<g id="Group_3">
<path id="Vector_2" d="M30.7797 8.01175C30.5811 7.95622 30.3782 7.90282 30.1689 7.85156C27.5739 8.50298 24.1203 8.89596 20.3036 8.89596H20.09C16.3588 8.88101 12.9842 8.48589 10.4426 7.85156L9.82964 8.01388C6.80749 9.12022 6.84379 9.75882 9.83391 10.7092C12.4332 11.4418 16.0534 11.901 20.0922 11.916L20.3057 11.9181C24.4278 11.9181 28.1292 11.4546 30.7776 10.7092C33.2402 9.91686 33.1782 8.8682 30.7797 8.01175Z" fill="#0B0112" style="fill:#0B0112;fill:color(display-p3 0.0445 0.0046 0.0690);fill-opacity:1;"/>
</g>
<g id="Group_4">
<path id="Vector_3" d="M31.758 1.52542C28.7978 0.694595 24.7441 0.177734 20.308 0.177734H20.0944C15.7417 0.194821 11.7712 0.707409 8.86015 1.52542C5.23997 2.54632 2.99951 4.2336 2.99951 6.34589C2.99951 6.87557 3.14261 7.38175 3.41172 7.8559C4.21478 6.44414 6.15195 5.3079 8.86015 4.54329C11.7712 3.72528 15.7417 3.21269 20.0944 3.1956H20.308C24.7441 3.1956 28.7978 3.71247 31.758 4.54329C34.4662 5.3079 36.4034 6.44414 37.2065 7.8559C37.4756 7.37962 37.6187 6.87557 37.6187 6.34589C37.6165 4.2336 35.3782 2.54632 31.758 1.52542Z" fill="#0B0112" style="fill:#0B0112;fill:color(display-p3 0.0445 0.0046 0.0690);fill-opacity:1;"/>
</g>
</g>
</g>
</svg>
