<svg width="368" height="101" viewBox="0 0 368 101" fill="none" xmlns="http://www.w3.org/2000/svg">
<path d="M53.1564 46.3455C51.0742 47.0696 48.9464 47.5555 46.7939 47.8815C46.6394 52.1163 46.6956 56.3918 47.5875 60.542C48.6479 65.482 50.4176 70.419 52.0855 75.2149C53.7358 79.9574 47.2328 82.2237 43.5881 79.6283C33.5106 72.4564 32.3975 59.4511 32.6819 48.7372C32.6854 48.6244 32.6994 48.5084 32.6994 48.3955C31.1755 48.3485 29.6516 48.2952 28.1382 48.2513C26.667 48.2106 25.1922 48.1824 23.714 48.1667C22.3902 57.119 21.5299 66.1497 20.5643 75.1522C20.1921 78.6002 14.6056 79.6941 13.503 76.0048C10.8976 67.2531 9.74942 58.1252 10.1638 49.0757C7.92002 49.4707 5.70086 50.0098 3.52735 50.7809C0.560284 51.8342 -1.48331 47.3862 1.36438 46.2045C4.38412 44.9507 7.47408 44.1012 10.6202 43.5307C11.6912 34.5282 14.3598 25.6982 18.8051 17.5044C19.8164 15.6394 23.2013 16.9747 22.5096 18.8993C19.7111 26.7075 17.8641 34.6912 17.1337 42.7251C17.3058 42.7126 17.4743 42.7063 17.6464 42.6969C17.8887 41.4211 18.0958 40.1391 18.3627 38.8633C20.5854 28.2497 23.3488 17.6016 28.1804 7.6619C29.9992 3.92551 33.3877 0.330161 38.5704 0.725116C44.4273 1.17022 46.9238 4.54615 47.7595 10.2824C48.5952 16.0312 48.1142 22.1028 47.9878 27.8798C47.8824 32.6475 47.4189 37.412 47.0924 42.1766C48.8831 42.07 50.6704 41.9509 52.4577 41.7691C55.6354 41.4462 55.6424 45.4835 53.1564 46.3455ZM33.012 42.5088C33.5667 34.337 34.6974 26.1715 35.9896 18.0906C36.2775 16.2819 36.6075 14.4796 36.9797 12.6835C37.1342 11.9312 38.6757 6.28269 36.6356 6.90334C34.7922 7.47383 33.8828 10.6899 33.2542 12.1569C32.3483 14.257 31.5969 16.4073 30.8139 18.5451C27.9451 26.3846 26.0595 34.3903 24.6515 42.4681C25.2414 42.4681 25.8278 42.4618 26.4212 42.465C28.6193 42.4838 30.8174 42.5026 33.012 42.5088Z" fill="white" style="fill:white;fill-opacity:1;"/>
<path d="M97.7499 58.3137C95.4465 63.3259 92.4619 69.4978 85.1829 68.8835C81.8085 68.5951 78.845 65.8116 77.6581 63.0845C76.4362 60.2916 76.531 57.2762 76.8505 54.3422C77.1104 51.9662 77.5985 49.6184 77.4369 47.2205C77.3702 46.2456 77.0682 44.7881 75.6953 45.4495C74.7964 45.882 74.1187 46.8412 73.5499 47.5684C72.1524 49.352 71.1833 51.3832 70.3019 53.4019C69.1643 56.0098 68.4199 58.7337 67.9774 61.5047C67.6825 63.3698 67.7984 65.5295 65.4914 66.3758C62.5173 67.4635 58.1492 65.0499 57.0818 62.6112C56.3901 61.0282 56.3198 59.2917 56.3234 57.5928C56.3339 54.1635 56.6113 50.7312 57.2539 47.349C57.7735 44.6219 58.1703 41.2272 62.0363 41.0579C64.0834 40.9702 65.6635 42.4215 66.1516 44.1047C66.7766 46.2582 66.9872 48.559 67.0505 50.8252C67.6052 49.6404 68.2373 48.4774 68.9501 47.3427C70.6776 44.6094 73.1145 41.7758 76.2185 40.1959C78.5289 39.0205 81.3942 38.7509 83.8065 39.7884C89.4948 42.2397 88.1394 53.778 87.525 59.7995C87.2967 62.0282 88.2061 62.9685 88.9576 63.0155C91.1662 63.1409 92.4935 60.859 94.7021 57.2856C95.2183 56.4487 96.0715 54.7309 96.4999 54.0382C96.8545 53.4645 97.5673 53.1417 98.3012 53.4802C99.9515 54.2294 98.2275 57.2762 97.7499 58.3137Z" fill="white" style="fill:white;fill-opacity:1;"/>
<path d="M143.159 55.1877C138.822 57.5167 135.483 59.9271 131.357 62.51C131.122 68.077 130.339 73.6001 128.963 79.1859C126.873 87.6806 121.21 96.6736 111.75 100.112C108.165 101.413 102.631 101.551 99.8431 98.6891C96.9463 95.7176 97.3712 91.0126 98.9969 87.6492C102.884 79.6091 110.258 72.434 117.677 66.8671C117.702 66.8451 117.723 66.8263 117.772 66.8044C118.211 63.5946 118.446 60.366 118.562 57.1342C116.964 60.7672 114.759 64.3155 111.905 66.9109C107.824 70.6129 100.875 70.732 97.7328 65.9925C94.7587 61.507 94.9694 55.1783 96.1176 50.257C97.4449 44.5647 101.831 38.9789 108.611 37.8755C112.256 37.3332 116.662 38.1262 119.97 40.0415C123.018 37.7188 129.036 38.1795 129.865 42.4049C130.862 47.5895 131.382 52.7521 131.431 57.874C134.914 55.8647 137.544 53.937 141.147 52.1189C143.37 50.9748 145.36 54.0216 143.159 55.1877ZM116.585 73.3431C113.597 75.9667 110.753 78.7188 108.288 81.7437C106.013 84.5366 99.8958 91.1819 103.333 94.6111C107.814 99.0872 112.27 88.4203 113 86.0569C114.089 82.5493 115.251 79.0574 116.132 75.5028C116.301 74.7818 116.445 74.064 116.585 73.3431ZM118.327 46.4736C118.193 46.3764 118.084 46.251 117.979 46.1288C116.473 44.8374 114.749 44.0412 112.705 44.9283C106.638 47.555 105.584 56.382 106.753 61.7107C106.964 62.673 107.624 63.2529 108.355 62.2655C111.532 57.9555 114.211 53.3571 116.985 48.8245C117.47 48.0315 117.898 47.2635 118.327 46.4736Z" fill="white" style="fill:white;fill-opacity:1;"/>
<path d="M174.209 54.8681C174.213 56.9746 172.011 59.8051 170.403 61.9209C164.845 69.237 152.53 71.8073 144.788 65.8516C140.332 62.4224 139.524 56.3069 140.357 51.4201C141.779 43.1888 150.859 34.5123 160.958 37.2205C164.515 38.1734 167.025 40.6905 166.765 44.0978C166.505 47.6116 163.967 50.9531 161.028 53.1755C158.942 54.7427 156.523 55.9057 153.917 56.6047C153.538 56.7113 152.281 56.8147 152.116 57.0905C151.856 57.5764 152.874 59.3129 153.134 59.758C155.789 64.3502 162.52 64.0117 166.267 60.7329C168.187 59.0622 169.796 57.2096 171.246 55.2098C172.506 53.4701 174.206 52.7492 174.209 54.8681ZM152.021 53.4701C154.89 52.9216 157.545 51.6082 159.606 49.7463C160.792 48.668 161.835 47.4173 162.499 46.0224C162.948 45.1353 163.756 43.0822 162.618 42.3205C161.337 41.4522 159.156 42.6371 158.068 43.3141C154.163 45.7372 153.127 49.5456 152.046 53.4074C152.046 53.4513 152.046 53.4513 152.021 53.4701Z" fill="white" style="fill:white;fill-opacity:1;"/>
<path d="M207.29 54.9349C205.689 58.0758 202.044 63.439 198.75 66.7836C195.358 70.2535 190.643 73.4508 185.239 73.4696C178.149 73.4915 173.156 67.4732 171.997 61.5457C170.835 55.6402 170.284 50.1046 170.519 44.1175C170.969 32.9648 174.596 20.0567 184.01 12.1199C188.041 8.71267 195.151 7.06076 198.754 11.888C202.216 16.524 200.32 22.1725 198.849 27.1031C195.839 37.3876 190.955 46.9543 184.789 55.9913C184.909 57.452 185.098 58.9127 185.453 60.3076C185.948 62.3105 186.552 65.9717 189.586 65.9028C192.735 65.8338 196.201 62.7275 198.097 60.8718C200.302 58.7121 202.567 55.5712 204.442 53.4303C205.811 51.8568 208.494 52.5746 207.29 54.9349ZM184.575 48.1611C188.037 41.9829 191.096 35.6323 193.371 29.0309C194.178 26.7239 194.888 24.3949 195.506 22.0252C195.98 20.204 197.167 16.5867 195.056 15.1887C190.671 12.3331 187.921 20.7964 187.209 23.0188C184.596 31.1687 184.431 39.7166 184.575 48.1611Z" fill="white" style="fill:white;fill-opacity:1;"/>
<path d="M251.531 56.1134C251.25 56.4551 250.965 56.7936 250.681 57.129C246.12 62.4609 240.614 66.2726 233.556 68.5953C227.619 70.5512 219.799 71.8615 214.391 68.0561C213.622 75.438 212.983 81.5128 213.089 90.2488C213.18 91.5121 213.268 92.7722 213.405 94.0573C213.64 96.2703 213.594 99.5648 210.585 100.223C208.155 100.756 206.568 98.966 205.722 97.1355C201.968 89.0107 201.508 80.0427 201.961 71.3662C202.432 62.3387 203.548 53.3237 203.246 44.2742C203.064 38.8044 211.969 39.0614 212.583 44.2742C212.857 46.6032 213.018 48.929 213.106 51.2549C214.395 47.5185 216.365 44.0391 219.686 41.7916C226.253 37.3907 236.021 38.6382 239.554 45.6221C242.264 51.0166 240.607 58.0004 236.878 63.0408C237.398 62.8183 237.907 62.5738 238.398 62.2917C242.205 60.1037 245.554 57.0883 248.532 54.0384C249.947 52.5808 252.812 54.5524 251.531 56.1134ZM230.856 48.1422C230.112 44.6817 225.828 44.293 222.647 46.2396C219.079 48.415 217.562 52.2203 216.611 55.7247C215.943 58.154 215.483 60.6272 215.122 63.1035C215.354 63.0596 215.533 63.0126 215.764 63.0346C221.874 63.1725 226.597 59.4361 229.367 55.358C230.782 53.2735 231.372 50.5684 230.856 48.1422Z" fill="white" style="fill:white;fill-opacity:1;"/>
<path d="M292.989 55.364C292.855 56.6774 292.255 58.602 291.567 60.1254C290.833 61.7554 290.001 63.3634 288.937 64.8241C287.539 66.7362 285.72 68.5417 283.319 69.4476C280.502 70.5102 277.254 70.3629 274.684 68.9022C271.391 67.0308 269.93 63.7395 269.421 60.4012C268.044 62.8336 266.38 65.1093 264.396 66.9117C260.316 70.6136 253.367 70.7327 250.224 65.9933C247.25 61.5077 247.461 55.179 248.609 50.2578C249.936 44.5654 254.322 38.9796 261.102 37.8763C264.965 37.3026 269.688 38.2148 273.044 40.387C274.108 39.0987 275.692 38.337 277.697 38.5753C280.092 38.8699 282.107 40.7538 282.058 42.9981C281.939 46.5966 281.535 50.1512 281.37 53.7497C281.307 55.1665 281.149 56.5708 281.138 57.9876C281.12 60.1567 281.377 65.9024 285.043 62.5641C286.261 61.4544 287.17 59.9686 288.006 58.6051C288.786 57.3356 289.249 55.9188 290.141 54.7026C291.135 53.3453 293.161 53.6776 292.989 55.364ZM270.681 45.8851C270.611 45.8161 270.534 45.7503 270.471 45.675C268.964 44.3836 267.24 43.5874 265.197 44.4745C259.129 47.1013 258.076 55.9282 259.245 61.257C259.456 62.2193 260.119 62.7992 260.846 61.8118C264.024 57.5018 266.703 52.9033 269.477 48.3708C269.86 47.7501 270.197 47.1357 270.534 46.5214C270.593 46.3114 270.622 46.0919 270.681 45.8851Z" fill="white" style="fill:white;fill-opacity:1;"/>
<path d="M336.884 55.1877C332.548 57.5167 329.208 59.9271 325.083 62.51C324.844 68.077 324.064 73.6001 322.688 79.1859C320.599 87.6806 314.935 96.6736 305.475 100.112C301.89 101.413 296.356 101.551 293.568 98.6891C290.672 95.7176 291.097 91.0126 292.722 87.6492C296.609 79.6091 303.983 72.434 311.402 66.8671C311.427 66.8451 311.448 66.8263 311.497 66.8044C311.936 63.5946 312.171 60.366 312.287 57.1342C310.69 60.7672 308.485 64.3155 305.63 66.9109C301.55 70.6129 294.601 70.732 291.458 65.9925C288.484 61.507 288.695 55.1783 289.843 50.257C291.17 44.5647 295.556 38.9789 302.336 37.8755C305.981 37.3332 310.388 38.1262 313.695 40.0415C316.743 37.7188 322.762 38.1795 323.59 42.4049C324.588 47.5895 325.107 52.7521 325.156 57.874C328.64 55.8647 331.27 53.937 334.872 52.1189C337.095 50.9748 339.086 54.0216 336.884 55.1877ZM310.31 73.3431C307.322 75.9667 304.478 78.7188 302.013 81.7437C299.738 84.5366 293.621 91.1819 297.059 94.6111C301.539 99.0872 305.995 88.4203 306.725 86.0569C307.814 82.5493 308.976 79.0574 309.857 75.5028C310.026 74.7818 310.17 74.064 310.31 73.3431ZM312.052 46.4736C311.919 46.3764 311.81 46.251 311.704 46.1288C310.198 44.8374 308.474 44.0412 306.43 44.9283C300.363 47.555 299.309 56.382 300.479 61.7107C300.689 62.673 301.35 63.2529 302.08 62.2655C305.258 57.9555 307.937 53.3571 310.711 48.8245C311.195 48.0315 311.624 47.2635 312.052 46.4736Z" fill="white" style="fill:white;fill-opacity:1;"/>
<path d="M367.935 54.8681C367.939 56.9746 365.737 59.8051 364.129 61.9209C358.571 69.237 346.256 71.8073 338.514 65.8516C334.058 62.4224 333.25 56.3069 334.083 51.4201C335.505 43.1888 344.585 34.5123 354.683 37.2205C358.24 38.1734 360.751 40.6905 360.491 44.0978C360.231 47.6116 357.693 50.9531 354.754 53.1755C352.668 54.7427 350.249 55.9057 347.643 56.6047C347.264 56.7113 346.007 56.8147 345.842 57.0905C345.582 57.5764 346.6 59.3129 346.86 59.758C349.515 64.3502 356.25 64.0117 359.993 60.7329C361.913 59.0622 363.521 57.2096 364.972 55.2098C366.232 53.4701 367.932 52.7492 367.935 54.8681ZM345.747 53.4701C348.616 52.9216 351.27 51.6082 353.332 49.7463C354.518 48.668 355.561 47.4173 356.225 46.0224C356.674 45.1353 357.482 43.0822 356.344 42.3205C355.063 41.4522 352.882 42.6371 351.794 43.3141C347.889 45.7372 346.853 49.5456 345.772 53.4074C345.772 53.4513 345.772 53.4513 345.747 53.4701Z" fill="white" style="fill:white;fill-opacity:1;"/>
<path d="M133.39 23.0661C133.063 22.9846 132.73 22.9063 132.386 22.8311C128.12 23.7871 122.442 24.3639 116.167 24.3639H115.816C109.682 24.3419 104.134 23.762 99.9552 22.8311L98.9474 23.0693C93.9789 24.693 94.0386 25.6302 98.9545 27.0251C103.228 28.1002 109.179 28.7742 115.819 28.7961L116.17 28.7993C122.947 28.7993 129.032 28.1191 133.387 27.0251C137.435 25.8622 137.333 24.3231 133.39 23.0661Z" fill="white" style="fill:white;fill-opacity:1;"/>
<path d="M134.999 13.5399C130.132 12.3206 123.467 11.562 116.174 11.562H115.823C108.667 11.5871 102.14 12.3394 97.3537 13.5399C91.402 15.0382 87.7186 17.5145 87.7186 20.6146C87.7186 21.392 87.9539 22.1349 88.3963 22.8308C89.7166 20.7588 92.9013 19.0912 97.3537 17.9691C102.14 16.7685 108.667 16.0162 115.823 15.9911H116.174C123.467 15.9911 130.132 16.7497 134.999 17.9691C139.451 19.0912 142.636 20.7588 143.956 22.8308C144.398 22.1318 144.634 21.392 144.634 20.6146C144.63 17.5145 140.95 15.0382 134.999 13.5399Z" fill="white" style="fill:white;fill-opacity:1;"/>
</svg>
