<svg width="12" height="12" viewBox="0 0 12 12" fill="none" xmlns="http://www.w3.org/2000/svg">
<path fillRule="evenodd" clipRule="evenodd" d="M7.52012 2.02575C8.02512 2.22675 8.17962 2.92675 8.38612 3.15175C8.59262 3.37675 8.88812 3.45325 9.05162 3.45325C9.92062 3.45325 10.6251 4.15775 10.6251 5.02625V7.92375C10.6251 9.08875 9.68012 10.0337 8.51512 10.0337H3.48512C2.31962 10.0337 1.37512 9.08875 1.37512 7.92375V5.02625C1.37512 4.15775 2.07962 3.45325 2.94862 3.45325C3.11162 3.45325 3.40712 3.37675 3.61412 3.15175C3.82062 2.92675 3.97462 2.22675 4.47962 2.02575C4.98512 1.82475 7.01512 1.82475 7.52012 2.02575Z" stroke="#611192" style="stroke:#611192;stroke:color(display-p3 0.3800 0.0671 0.5717);stroke-opacity:1;" stroke-width="1.5" stroke-linecap="round" stroke-linejoin="round"/>
<path d="M8.74775 4.75H8.75225" stroke="#611192" style="stroke:#611192;stroke:color(display-p3 0.3800 0.0671 0.5717);stroke-opacity:1;" stroke-width="2" stroke-linecap="round" stroke-linejoin="round"/>
<path fillRule="evenodd" clipRule="evenodd" d="M7.58952 6.56411C7.58952 5.68611 6.87802 4.97461 6.00002 4.97461C5.12202 4.97461 4.41052 5.68611 4.41052 6.56411C4.41052 7.44211 5.12202 8.15361 6.00002 8.15361C6.87802 8.15361 7.58952 7.44211 7.58952 6.56411Z" stroke="#611192" style="stroke:#611192;stroke:color(display-p3 0.3800 0.0671 0.5717);stroke-opacity:1;" stroke-width="1.5" stroke-linecap="round" stroke-linejoin="round"/>
</svg>
