<svg width="32" height="32" viewBox="0 0 32 32" fill="none" xmlns="http://www.w3.org/2000/svg">
<g opacity="0.6">
<rect width="32" height="32" fill="#E6E3E7" style="fill:#E6E3E7;fill:color(display-p3 0.9004 0.8899 0.9078);fill-opacity:1;"/>
<path d="M20.8833 14.3125C20.8833 14.3125 20.5213 18.8025 20.3113 20.6938C20.2113 21.5972 19.6533 22.1265 18.7393 22.1432C16.9999 22.1745 15.2586 22.1765 13.5199 22.1398C12.6406 22.1218 12.0919 21.5858 11.9939 20.6985C11.7826 18.7905 11.4226 14.3125 11.4226 14.3125" stroke="#611192" style="stroke:#611192;stroke:color(display-p3 0.3800 0.0671 0.5717);stroke-opacity:1;" stroke-width="1.5" stroke-linecap="round" stroke-linejoin="round"/>
<path d="M21.8055 12.1595H10.5001" stroke="#611192" style="stroke:#611192;stroke:color(display-p3 0.3800 0.0671 0.5717);stroke-opacity:1;" stroke-width="1.5" stroke-linecap="round" stroke-linejoin="round"/>
<path d="M19.627 12.16C19.1037 12.16 18.653 11.79 18.5503 11.2773L18.3883 10.4667C18.2883 10.0927 17.9497 9.83398 17.5637 9.83398H14.7417C14.3557 9.83398 14.017 10.0927 13.917 10.4667L13.755 11.2773C13.6523 11.79 13.2017 12.16 12.6783 12.16" stroke="#611192" style="stroke:#611192;stroke:color(display-p3 0.3800 0.0671 0.5717);stroke-opacity:1;" stroke-width="1.5" stroke-linecap="round" stroke-linejoin="round"/>
</g>
</svg>
