<svg width="16" height="16" viewBox="0 0 16 16" fill="none" xmlns="http://www.w3.org/2000/svg">
<g id="Iconly">
<path id="vector" fillRule="evenodd" clipRule="evenodd" d="M7.50187 7.85932L7.65296 7.89248L10.1301 8.51174C10.9108 8.70694 11.3039 9.53008 11.0566 10.2721L11.2703 10.1247L11.7006 9.81708C11.9177 9.66429 12.1388 9.51841 12.3687 9.40348C13.3926 8.89154 14.5917 9.598 14.6634 10.7177L14.6668 10.8238V10.8609C14.6668 11.3258 14.4662 11.7657 14.1203 12.0702L14.0224 12.1497L11.9754 13.685C11.7764 13.8343 11.5515 13.9449 11.3126 14.0115L11.1677 14.0461L9.0281 14.4741C8.3618 14.6073 7.6722 14.5335 7.05122 14.2649L6.88363 14.1869L5.31688 13.4035C5.24745 13.3688 5.17268 13.3466 5.09597 13.3376L5.01874 13.3331H4.48846C4.27565 13.701 3.89212 13.9578 3.44621 13.9951L3.3335 13.9998H2.66683C1.96392 13.9998 1.38805 13.4558 1.33715 12.766L1.3335 12.6665V9.99981C1.3335 9.29688 1.87741 8.72103 2.56732 8.67013L2.66683 8.66648H3.3335C3.65633 8.66648 3.95237 8.7812 4.18306 8.97212L4.26643 9.04721L5.59286 8.21814C6.11915 7.88923 6.74068 7.75589 7.34988 7.83509L7.50187 7.85932ZM6.29953 9.34881L4.66683 10.3693V11.9998H5.01874C5.32923 11.9998 5.63546 12.0721 5.91316 12.2109L7.47996 12.9943C7.87776 13.1932 8.3305 13.2539 8.76663 13.1666L10.9062 12.7387C11.0038 12.7192 11.0958 12.6781 11.1754 12.6183L13.2224 11.0831C13.3078 11.0191 13.3335 10.925 13.3335 10.8238C13.3335 10.6443 13.1544 10.5243 12.9915 10.5845L11.3725 11.6639C11.044 11.8829 10.658 11.9998 10.2631 11.9998H8.00016V10.6665H9.03916C9.3261 10.6665 9.5809 10.4828 9.67163 10.2106L9.8067 9.80528L7.32956 9.18601C6.97836 9.09814 6.60653 9.15694 6.29953 9.34881ZM3.3335 9.99981H2.66683V12.6665H3.3335V9.99981ZM10.6668 2.31206C11.3541 1.88302 12.1416 1.91713 12.7774 2.2876C13.5188 2.71959 14.0216 3.58221 13.9994 4.56905C13.972 5.79265 13.0598 6.79804 11.7076 7.63516L11.4419 7.79503C11.2034 7.93601 10.949 8.07388 10.6668 8.07388C10.3846 8.07388 10.1303 7.93601 9.89173 7.79503L9.62608 7.63516C8.2739 6.79804 7.36167 5.79265 7.33423 4.56905C7.3121 3.58221 7.81483 2.71959 8.5563 2.2876C9.1921 1.91713 9.97956 1.88302 10.6668 2.31206ZM12.1062 3.43966C11.8536 3.29251 11.5532 3.27546 11.2544 3.5305L11.1168 3.65675C10.8546 3.86627 10.4791 3.86627 10.2169 3.65675L10.0792 3.5305C9.78049 3.27546 9.48005 3.29251 9.2275 3.43966C8.9201 3.61876 8.65556 4.01993 8.66723 4.53916C8.67888 5.05861 9.07981 5.72618 10.3129 6.4922L10.4714 6.58846L10.6668 6.70263L10.8622 6.58846C12.2198 5.78207 12.6543 5.08025 12.6664 4.53916C12.6781 4.01993 12.4136 3.61876 12.1062 3.43966Z" fill="#611192" style="fill:#611192;fill:color(display-p3 0.3800 0.0671 0.5717);fill-opacity:1;"/>
</g>
</svg>
