<svg width="12" height="12" viewBox="0 0 12 12" fill="none" xmlns="http://www.w3.org/2000/svg">
<path d="M2.39738 3.52807C2.39738 2.90357 2.90338 2.39757 3.52788 2.39707H4.04238C4.34088 2.39707 4.62688 2.27857 4.83888 2.06857L5.19838 1.70857C5.63888 1.26557 6.35488 1.26357 6.79788 1.70407L6.79838 1.70457L6.80288 1.70857L7.16288 2.06857C7.37488 2.27907 7.66088 2.39707 7.95938 2.39707H8.47338C9.09788 2.39707 9.60438 2.90307 9.60438 3.52807V4.04157C9.60438 4.34007 9.72238 4.62657 9.93288 4.83857L10.2929 5.19857C10.7359 5.63907 10.7384 6.35507 10.2979 6.79807L10.2974 6.79857L10.2929 6.80307L9.93288 7.16307C9.72238 7.37457 9.60438 7.66057 9.60438 7.95907V8.47357C9.60438 9.09807 9.09838 9.60407 8.47388 9.60407H8.47338H7.95838C7.65988 9.60407 7.37338 9.72257 7.16188 9.93307L6.80188 10.2926C6.36188 10.7356 5.64638 10.7381 5.20338 10.2986C5.20288 10.2981 5.20238 10.2976 5.20188 10.2971L5.19738 10.2926L4.83788 9.93307C4.62638 9.72257 4.33988 9.60457 4.04138 9.60407H3.52788C2.90338 9.60407 2.39738 9.09807 2.39738 8.47357V7.95807C2.39738 7.65957 2.27888 7.37357 2.06838 7.16207L1.70888 6.80207C1.26588 6.36207 1.26338 5.64657 1.70338 5.20357C1.70338 5.20307 1.70388 5.20257 1.70438 5.20207L1.70888 5.19757L2.06838 4.83757C2.27888 4.62557 2.39738 4.33957 2.39738 4.04057V3.52807" stroke="#611192" style="stroke:#611192;stroke:color(display-p3 0.3800 0.0671 0.5717);stroke-opacity:1;" stroke-width="1.5" stroke-linecap="round" stroke-linejoin="round"/>
<path d="M4.71582 7.2868L7.28582 4.7168" stroke="#611192" style="stroke:#611192;stroke:color(display-p3 0.3800 0.0671 0.5717);stroke-opacity:1;" stroke-width="1.5" stroke-linecap="round" stroke-linejoin="round"/>
<path d="M7.24775 7.25H7.25225" stroke="#611192" style="stroke:#611192;stroke:color(display-p3 0.3800 0.0671 0.5717);stroke-opacity:1;" stroke-width="2" stroke-linecap="round" stroke-linejoin="round"/>
<path d="M4.74775 4.75H4.75225" stroke="#611192" style="stroke:#611192;stroke:color(display-p3 0.3800 0.0671 0.5717);stroke-opacity:1;" stroke-width="2" stroke-linecap="round" stroke-linejoin="round"/>
</svg>
