<svg width="24" height="24" viewBox="0 0 24 24" fill="none" xmlns="http://www.w3.org/2000/svg">
<path fillRule="evenodd" clipRule="evenodd" d="M11.2526 11.7895L11.4792 11.8392L15.1949 12.7681C16.366 13.0609 16.9556 14.2956 16.5846 15.4086L16.9052 15.1876L17.5506 14.7261C17.8763 14.4969 18.208 14.2781 18.5528 14.1057C20.0886 13.3378 21.8873 14.3975 21.9949 16.077L22 16.2362V16.2919C22 16.9891 21.6991 17.649 21.1802 18.1057L21.0334 18.2251L17.9629 20.528C17.6643 20.7519 17.327 20.9178 16.9687 21.0177L16.7513 21.0697L13.5419 21.7116C12.5425 21.9114 11.5081 21.8008 10.5766 21.3979L10.3252 21.2808L7.97508 20.1057C7.87093 20.0537 7.75877 20.0203 7.64371 20.0069L7.52786 20.0002H6.73244C6.41323 20.552 5.83794 20.9372 5.16907 20.9932L5 21.0002H4C2.94564 21.0002 2.08183 20.1843 2.00549 19.1495L2 19.0002V15.0002C2 13.9458 2.81588 13.082 3.85074 13.0057L4 13.0002H5C5.48426 13.0002 5.92831 13.1723 6.27435 13.4587L6.3994 13.5713L8.38905 12.3277C9.17848 11.8343 10.1108 11.6343 11.0246 11.7531L11.2526 11.7895ZM9.44905 14.0237L7 15.5544V18.0002H7.52786C7.9936 18.0002 8.45294 18.1086 8.8695 18.3169L11.2197 19.492C11.8164 19.7903 12.4955 19.8813 13.1497 19.7504L16.359 19.1085C16.5055 19.0793 16.6435 19.0176 16.7629 18.928L19.8334 16.6251C19.9614 16.5291 20 16.388 20 16.2362C20 15.967 19.7314 15.787 19.487 15.8773L17.0585 17.4963C16.5657 17.8248 15.9867 18.0002 15.3944 18.0002H12V16.0002H13.5585C13.9889 16.0002 14.3711 15.7247 14.5072 15.3164L14.7098 14.7084L10.9941 13.7795C10.4673 13.6477 9.90955 13.7359 9.44905 14.0237ZM5 15.0002H4V19.0002H5V15.0002ZM16 3.46857C17.0309 2.82501 18.2121 2.87618 19.1658 3.43188C20.278 4.07987 21.0321 5.3738 20.9989 6.85406C20.9577 8.68947 19.5894 10.1975 17.5611 11.4532L17.1627 11.693C16.8048 11.9045 16.4233 12.1113 16 12.1113C15.5767 12.1113 15.1952 11.9045 14.8373 11.693L14.4389 11.4532C12.4106 10.1975 11.0423 8.68947 11.0011 6.85406C10.9679 5.3738 11.722 4.07987 12.8342 3.43188C13.7879 2.87618 14.9691 2.82501 16 3.46857ZM18.159 5.15997C17.7802 4.93925 17.3295 4.91367 16.8814 5.29623L16.6749 5.48562C16.2816 5.79989 15.7184 5.79989 15.3251 5.48562L15.1186 5.29623C14.6705 4.91367 14.2198 4.93925 13.841 5.15997C13.3799 5.42862 12.9831 6.03038 13.0006 6.80922C13.0181 7.5884 13.6195 8.58976 15.4691 9.73879L15.7068 9.88318L16 10.0544L16.2931 9.88318C18.3294 8.67359 18.9812 7.62086 18.9994 6.80922C19.0169 6.03038 18.6201 5.42862 18.159 5.15997Z" fill="#611192" style="fill:#611192;fill:color(display-p3 0.3800 0.0671 0.5717);fill-opacity:1;"/>
</svg>
